<svg xmlns="http://www.w3.org/2000/svg" width="200" height="200" viewBox="0 0 200 200">
  <g fill="none" stroke="#9e9e9e" stroke-width="1.2" opacity="0.35">
    <circle cx="30" cy="35" r="8"/>
    <path d="M70 28h16v12H70z M78 40v8"/>
    <path d="M120 30c8 0 14 6 14 14s-6 14-14 14"/>
    <path d="M165 32l10 8-10 8-10-8z"/>
    <path d="M25 95h20l-10 14z"/>
    <path d="M75 88a12 8 0 0 1 24 0v10H75z"/>
    <circle cx="140" cy="98" r="10"/>
    <path d="M180 90v20M170 100h20"/>
    <path d="M35 155c0-6 5-10 12-10h6c7 0 12 4 12 10v8H35z"/>
    <path d="M95 148h22v18H95z M106 166v6"/>
    <path d="M155 150h18M164 141v18"/>
  </g>
</svg>
